{"title":"A Dennis the Menace Christmas (2007) BRRIP 1080P","uid":9410988,"size":3208325465,"categoryP":"video","categoryS":"hd___movies","magnet":"?xt=urn:btih:d1d941b187e03b4995c1903524e13335f3f51b71&amp;dn=+A+Dennis+the+Menace+Christmas+%282007%29+BRRIP+1080P&amp;tr=udp%3A%2F%2Ftracker.openbittorrent.com%3A80&amp;tr=udp%3A%2F%2Fopen.demonii.com%3A1337&amp;tr=udp%3A%2F%2Ftracker.coppersurfer.tk%3A6969&amp;tr=udp%3A%2F%2Fexodus.desync.com%3A6969","seeders":2,"leechers":1,"uploader":"sonicx33","files":-1,"time":1388293707,"description":" &lt;a href=&quot;http://www.imdb.com/title/tt0918511/&quot; rel=&quot;nofollow&quot; target=&quot;_NEW&quot;&gt;http://www.imdb.com/title/tt0918511/&lt;/a&gt;\n\n\nFormat                                   : MPEG-4\nFormat profile                           : Base Media / Version 2\nCodec ID                                 : mp42\nFile size                                : 2.98 GiB\nDuration                                 : 1h 27mn\nOverall bit rate mode                    : Variable\nOverall bit rate                         : 4 880 Kbps\nMovie name                               : A Dennis the Menace Christmas\nPerformer                                : Ron Oliver\nGenre                                    : Kids &amp; Family\nD\nRecorded date                            : UTC 2008-01-01 08:00:00\nEncoded date                             : UTC 2013-12-16 07:31:30\nTagged date                              : UTC 2013-12-16 09:28:01\nWriting application                      : HandBrake 0.9.9 2013051800\nCover                                    : Yes\n\nVideo\nID                                       : 1\nFormat                                   : AVC\nFormat/Info                              : Advanced Video Codec\nFormat profile                           : &lt;a class=&quot;__cf_email__&quot; href=&quot;/cdn-cgi/l/email-protection&quot; data-cfemail=&quot;0446657761686d6a614448302a35&quot;&gt;[email&amp;#160;protected]&lt;/a&gt;&lt;script cf-hash='f9e31' type=&quot;text/javascript&quot;&gt;\n/* &lt;![CDATA[ */!function(){try{var t=&quot;currentScript&quot;in document?document.currentScript:function(){for(var t=document.getElementsByTagName(&quot;script&quot;),e=t.length;e--;)if(t[e].getAttribute(&quot;cf-hash&quot;))return t[e]}();if(t&amp;&amp;t.previousSibling){var e,r,n,i,c=t.previousSibling,a=c.getAttribute(&quot;data-cfemail&quot;);if(a){for(e=&quot;&quot;,r=parseInt(a.substr(0,2),16),n=2;a.length-n;n+=2)i=parseInt(a.substr(n,2),16)^r,e+=String.fromCharCode(i);e=document.createTextNode(e),c.parentNode.replaceChild(e,c)}}}catch(u){}}();/* ]]&gt; */&lt;/script&gt;\nFormat settings, CABAC                   : No\nFormat settings, ReFrames                : 1 frame\nCodec ID                                 : avc1\nCodec ID/Info                            : Advanced Video Coding\nDuration                                 : 1h 27mn\nBit rate                                 : 4 628 Kbps\nWidth                                    : 1 920 pixels\nHeight                                   : 1 080 pixels\nDisplay aspect ratio                     : 16:9\nFrame rate mode                          : Variable\nFrame rate                               : 23.976 fps\nMinimum frame rate                       : 23.974 fps\nMaximum frame rate                       : 23.981 fps\nColor space                              : YUV\nChroma subsampling                       : 4:2:0\nBit depth                                : 8 bits\nScan type                                : Progressive\nBits/(Pixel*Frame)                       : 0.093\nStream size                              : 2.88 GiB (97%)\nWriting library                          : x264 core 130 r2273 b3065e6\nEncoding settings                        : cabac=0 / ref=1 / deblock=0:0:0 / \nEncoded date                             : UTC 2013-12-16 07:31:30\nTagged date                              : UTC 2013-12-16 09:28:01\nColor primaries                          : BT.709\nTransfer characteristics                 : BT.709\nMatrix coefficients                      : BT.709\n\nAudio\nID                                       : 2\nFormat                                   : AAC\nFormat/Info                              : Advanced Audio Codec\nFormat profile                           : LC\nCodec ID                                 : 40\nDuration                                 : 1h 27mn\nBit rate mode                            : Variable\nBit rate                                 : 160 Kbps\nMaximum bit rate                         : 262 Kbps\nChannel(s)                               : 2 channels\nChannel positions                        : Front: L R\nSampling rate                            : 44.1 KHz\nCompression mode                         : Lossy\nStream size                              : 100 MiB (3%)\nLanguage                                 : English\nEncoded date                             : UTC 2013-12-16 07:31:30\nTagged date                              : UTC 2013-12-16 09:28:00\n\n\nStoryline\n\nDennis Christmas is a Dennis The Menace version of A Christmas Carol where Mr. Wilson plays his own version of Scrooge. While Dennis has problems of his own with the neighborhood bully, he does his best to try and give Mr. Wilson the Christmas Spirit. Dennis causes his usual damage and Mr. Wilson ends up breaking Dennis' spirit. An Angel of Christmas Past Present and Future steps in to help save Christmas for the Mitchells, the Wilsons, and everyone else. \n\n","torrent":{"xt":"urn:btih:d1d941b187e03b4995c1903524e13335f3f51b71","amp;dn":"+A+Dennis+the+Menace+Christmas+%282007%29+BRRIP+1080P","amp;tr":["udp%3A%2F%2Ftracker.openbittorrent.com%3A80","udp%3A%2F%2Fopen.demonii.com%3A1337","udp%3A%2F%2Ftracker.coppersurfer.tk%3A6969","udp%3A%2F%2Fexodus.desync.com%3A6969"],"infoHash":"d1d941b187e03b4995c1903524e13335f3f51b71","infoHashBuffer":{"type":"Buffer","data":[209,217,65,177,135,224,59,73,149,193,144,53,36,225,51,53,243,245,27,113]},"announce":[],"urlList":[]}}